<?xml version="1.0" encoding="UTF-8" standalone="no"?>
<!-- Created with Inkscape (http://www.inkscape.org/) -->

<svg
   width="92.287392mm"
   height="78.177025mm"
   viewBox="0 0 92.287392 78.177025"
   version="1.1"
   id="svg1"
   xml:space="preserve"
   inkscape:version="1.3 (0e150ed6c4, 2023-07-21)"
   sodipodi:docname="jetpage-logo.svg"
   xmlns:inkscape="http://www.inkscape.org/namespaces/inkscape"
   xmlns:sodipodi="http://sodipodi.sourceforge.net/DTD/sodipodi-0.dtd"
   xmlns="http://www.w3.org/2000/svg"
   xmlns:svg="http://www.w3.org/2000/svg"><sodipodi:namedview
     id="namedview1"
     pagecolor="#ffffff"
     bordercolor="#000000"
     borderopacity="0.25"
     inkscape:showpageshadow="2"
     inkscape:pageopacity="0.0"
     inkscape:pagecheckerboard="0"
     inkscape:deskcolor="#d1d1d1"
     inkscape:document-units="mm"
     inkscape:zoom="2"
     inkscape:cx="164"
     inkscape:cy="187.25"
     inkscape:window-width="1920"
     inkscape:window-height="1009"
     inkscape:window-x="-8"
     inkscape:window-y="-8"
     inkscape:window-maximized="1"
     inkscape:current-layer="layer1" /><defs
     id="defs1" /><g
     inkscape:label="Layer 1"
     inkscape:groupmode="layer"
     id="layer1"
     transform="translate(-57.536899,-98.589052)"><path
       style="fill:#167c82;fill-opacity:1;stroke-width:0.2"
       d="m 57.536899,176.49216 2.694189,-5.6167 10.964786,0.0379 c 3.916455,0.32725 5.897906,-3.61524 6.489463,-5.66292 l 8.084467,-18.7437 c -0.345884,-4.01818 -0.345248,-2.05278 -0.788716,-5.08462 l -26.896218,-3.42482 3.013837,-6.52998 35.274929,-9.40034 8.563664,-17.38104 c 1.55229,-3.14825 1.49823,-3.18207 6.26937,-5.35419 1.66656,4.38506 1.88125,4.2228 0.18171,8.62959 l -26.909598,61.95524 c -2.14217,5.60727 -3.908712,6.42376 -9.45249,6.57565 z"
       id="path1"
       sodipodi:nodetypes="ccccccccccccccc" /><path
       style="fill:#136c71;fill-opacity:1;stroke-width:0.2"
       d="m 105.62131,150.73754 5.79935,-2.83118"
       id="path2" /><path
       style="fill:#136c71;fill-opacity:1;stroke-width:0.2"
       d="M 111.28367,126.21587 H 132.4262"
       id="path3" /><path
       style="fill:#136c71;fill-opacity:1;stroke-width:0.2"
       d="m 134.98339,120.78182 -24.24769,0.0457"
       id="path4" /><path
       style="fill:#167c82;fill-opacity:1;stroke-width:0.2"
       d="m 105.62131,150.82887 c 1.21481,-1.40505 2.71489,-2.61653 5.6167,-2.87684 l 0.0457,-21.46218 21.10115,-0.18686 2.50911,-5.51851 -24.15823,-0.003 c -0.55342,1.20956 -4.24571,9.32265 -5.20572,11.00507 z"
       id="path5"
       sodipodi:nodetypes="cccccccc" /><path
       style="fill:#439bdc;fill-opacity:1;stroke-width:0.2"
       d="m 144.13907,137.70041 -5.0459,0.0685 c -2.97096,0.10543 -6.30247,-0.30752 -6.62131,-3.47051 l -0.0872,-7.99641 2.5074,-5.5202 14.9322,14.52122 -0.0457,6.52998 c 0.24613,9.6129 -8.50687,15.19862 -15.16052,15.34318 l -21.59917,0.13699 c -1.06965,-0.0743 -1.9305,0.09 -1.73524,1.46126 l 0.0457,17.90036 -5.89068,0.0913 0.18266,-18.90498 c -0.28486,-2.76045 2.58122,-5.65921 5.43404,-6.02767 l 22.1928,-0.27399 c 6.37742,-0.52201 10.88291,-3.01714 10.91375,-10.22878 z"
       id="path7"
       sodipodi:nodetypes="ccccccccccccccccc" /><path
       style="fill:#167c82;fill-opacity:1;stroke-width:0.2"
       d="m 134.8984,120.79623 0.0393,11.6528 c 0.0716,1.11866 0.96255,2.57418 2.73984,2.53436 h 11.87269 z"
       id="path6"
       sodipodi:nodetypes="ccccc" /></g></svg>
